<?xml version="1.0" encoding="UTF-8" standalone="no"?>
<!-- Created with Inkscape (http://www.inkscape.org/) -->

<svg
   width="33.866665mm"
   height="33.866665mm"
   viewBox="0 0 33.866665 33.866665"
   version="1.1"
   id="svg5"
   xml:space="preserve"
   inkscape:version="1.2.2 (1:1.2.2+202212051550+b0a8486541)"
   sodipodi:docname="icon.svg"
   xmlns:inkscape="http://www.inkscape.org/namespaces/inkscape"
   xmlns:sodipodi="http://sodipodi.sourceforge.net/DTD/sodipodi-0.dtd"
   xmlns:xlink="http://www.w3.org/1999/xlink"
   xmlns="http://www.w3.org/2000/svg"
   xmlns:svg="http://www.w3.org/2000/svg"><sodipodi:namedview
     id="namedview7"
     pagecolor="#ffffff"
     bordercolor="#000000"
     borderopacity="0.25"
     inkscape:showpageshadow="2"
     inkscape:pageopacity="0.0"
     inkscape:pagecheckerboard="0"
     inkscape:deskcolor="#d1d1d1"
     inkscape:document-units="mm"
     showgrid="false"
     inkscape:zoom="4"
     inkscape:cx="88.5"
     inkscape:cy="52.875"
     inkscape:window-width="1920"
     inkscape:window-height="1016"
     inkscape:window-x="0"
     inkscape:window-y="27"
     inkscape:window-maximized="1"
     inkscape:current-layer="layer1" /><defs
     id="defs2"><linearGradient
       inkscape:collect="always"
       id="linearGradient15285"><stop
         style="stop-color:#fc00a7;stop-opacity:1;"
         offset="0"
         id="stop15281" /><stop
         style="stop-color:#e700f3;stop-opacity:1;"
         offset="1"
         id="stop15283" /></linearGradient><linearGradient
       inkscape:collect="always"
       id="linearGradient5798"><stop
         style="stop-color:#fc00a7;stop-opacity:1"
         offset="0"
         id="stop5794" /><stop
         style="stop-color:#e700f3;stop-opacity:1"
         offset="1"
         id="stop5796" /></linearGradient><linearGradient
       inkscape:collect="always"
       xlink:href="#linearGradient5798"
       id="linearGradient7941"
       x1="96.762466"
       y1="74.326355"
       x2="130.62914"
       y2="74.326355"
       gradientUnits="userSpaceOnUse"
       gradientTransform="translate(-86.442745,58.606499)" /><linearGradient
       inkscape:collect="always"
       xlink:href="#linearGradient15285"
       id="linearGradient15287"
       x1="101.29486"
       y1="86.700569"
       x2="125.24221"
       y2="62.753223"
       gradientUnits="userSpaceOnUse" /><linearGradient
       inkscape:collect="always"
       xlink:href="#linearGradient5798"
       id="linearGradient17536"
       gradientUnits="userSpaceOnUse"
       gradientTransform="translate(-184.05326,32.307186)"
       x1="97.352692"
       y1="68.987679"
       x2="121.30004"
       y2="92.935028" /></defs><g
     inkscape:label="Calque 1"
     inkscape:groupmode="layer"
     id="layer1"
     transform="translate(-96.335205,-57.793564)"><g
       id="g21220"><circle
         style="fill:url(#linearGradient7941);fill-opacity:1;stroke:none;stroke-width:2.0397;stroke-linecap:round;stroke-linejoin:round;stroke-dasharray:none"
         id="path3437"
         cx="27.253056"
         cy="132.93285"
         r="16.933332"
         transform="rotate(-45)" /><path
         id="path20261"
         style="opacity:0.1;fill:#000000;fill-opacity:1;stroke:none;stroke-width:1.28371;stroke-linecap:round;stroke-linejoin:round;stroke-dasharray:none"
         d="m 110.81649,66.653296 c -0.47263,7e-6 -0.90936,0.252153 -1.14566,0.661458 l -0.83923,1.455209 h -4.39611 c -0.73289,0 -1.32292,0.590025 -1.32292,1.322916 v 10.583334 c 0,0.377269 0.15706,0.715972 0.40876,0.95653 l 0.48679,0.486792 c 0.24056,0.251703 0.57926,0.408761 0.95653,0.408761 h 18.52084 c 0.73289,0 1.32291,-0.590027 1.32291,-1.322917 V 70.622046 c 0,-0.37727 -0.15705,-0.715972 -0.40876,-0.956531 l -0.48679,-0.486792 c -0.24056,-0.251702 -0.57926,-0.40876 -0.95653,-0.40876 h -4.17236 l -0.53381,-0.926042 c -0.0586,-0.101464 -0.12962,-0.193183 -0.21033,-0.273885 l -0.002,-0.0021 -0.5271,-0.5271 c -0.24486,-0.244851 -0.57988,-0.387571 -0.93535,-0.387573 z" /><path
         id="path20772"
         style="fill:#dbdbdb;fill-opacity:1;stroke:none;stroke-width:1.28371;stroke-linecap:round;stroke-linejoin:round;stroke-dasharray:none"
         d="m 110.81649,66.653296 c -0.47263,7e-6 -0.90935,0.252152 -1.14566,0.661458 l -0.83923,1.455208 h -4.39611 c -0.73289,0 -1.32292,0.590025 -1.32292,1.322917 v 10.583333 c 0,0.732892 0.59003,1.322917 1.32292,1.322917 h 18.52083 c 0.73289,0 1.32292,-0.590025 1.32292,-1.322917 V 70.092879 c 0,-0.732892 -0.59003,-1.322917 -1.32292,-1.322917 h -4.39611 l -0.83923,-1.455208 c -0.23631,-0.409309 -0.67304,-0.661455 -1.14567,-0.661458 z"
         sodipodi:nodetypes="sccssssssssccss" /><path
         id="rect19116"
         style="fill:#575b6d;fill-opacity:1;stroke:none;stroke-width:0.344773;stroke-linecap:round;stroke-linejoin:round;stroke-dasharray:none;stroke-opacity:1"
         d="m 120.36139,67.843912 c -0.14658,0 -0.26459,0.118005 -0.26459,0.264584 v 0.661466 h 1.32292 v -0.661466 c 0,-0.146579 -0.118,-0.264584 -0.26458,-0.264584 z"
         sodipodi:nodetypes="ssccsss" /><rect
         style="fill:#626262;fill-opacity:1;stroke:none;stroke-width:1.34739;stroke-linecap:round;stroke-linejoin:round;stroke-dasharray:none"
         id="rect3441"
         width="21.166666"
         height="7.4083333"
         x="103.11246"
         y="71.711014"
         ry="0" /><path
         id="path21110"
         style="opacity:0.1;fill:#000000;fill-opacity:1;stroke-width:0.278424;stroke-linecap:round;stroke-linejoin:round"
         d="m 117.96664,72.202644 c 2.06652,2.066522 2.06652,5.41702 -1e-5,7.483542 -2.06652,2.066522 -5.41701,2.066521 -7.48354,4e-6 l -0.52909,-0.529265 7.48379,-7.483264 z"
         sodipodi:nodetypes="cscccc" /><circle
         style="fill:#757575;fill-opacity:1;stroke:none;stroke-width:2.5;stroke-linecap:round;stroke-linejoin:round;stroke-dasharray:none"
         id="path14884"
         cx="113.69579"
         cy="75.415176"
         r="5.2916665" /><circle
         style="fill:#63a6e4;fill-opacity:1;stroke:none;stroke-width:1.75;stroke-linecap:round;stroke-linejoin:round;stroke-dasharray:none"
         id="circle14886"
         cx="113.69579"
         cy="75.415176"
         r="3.7041667" /><circle
         style="fill:none;fill-opacity:1;stroke:url(#linearGradient15287);stroke-width:0.264583;stroke-linecap:round;stroke-linejoin:round;stroke-dasharray:none;stroke-opacity:1"
         id="path14944"
         cx="113.69579"
         cy="75.415176"
         r="4.4979167" /><circle
         style="fill:url(#linearGradient17536);fill-opacity:1;stroke:none;stroke-width:2.0397;stroke-linecap:round;stroke-linejoin:round;stroke-dasharray:none"
         id="circle17532"
         cx="-70.35746"
         cy="106.63355"
         transform="rotate(-90)"
         r="0.66145831" /><circle
         style="fill:#ffffff;fill-opacity:1;stroke:none;stroke-width:2.0397;stroke-linecap:round;stroke-linejoin:round;stroke-dasharray:none"
         id="circle17540"
         cx="27.515812"
         cy="131.69371"
         transform="rotate(-45)"
         r="0.66145831" /><circle
         style="fill:#ffffff;fill-opacity:1;stroke:none;stroke-width:2.0397;stroke-linecap:round;stroke-linejoin:round;stroke-dasharray:none"
         id="circle17560"
         cx="25.810453"
         cy="132.08945"
         transform="rotate(-45)"
         r="0.26458332" /><path
         id="circle21204"
         style="opacity:0.1;fill:#000000;fill-opacity:1;stroke:none;stroke-width:1.75;stroke-linecap:round;stroke-linejoin:round;stroke-dasharray:none"
         d="m 116.03633,72.544409 a 3.7041667,3.7041667 0 0 1 0.83457,2.341459 3.7041667,3.7041667 0 0 1 -3.70416,3.704167 3.7041667,3.7041667 0 0 1 -2.33785,-0.831474 3.7041667,3.7041667 0 0 0 2.86701,1.360641 3.7041667,3.7041667 0 0 0 3.70417,-3.704167 3.7041667,3.7041667 0 0 0 -1.36374,-2.870626 z" /></g></g></svg>
